<svg aria-hidden="true" style="position: absolute; width: 0; height: 0; overflow: hidden;" version="1.1" xmlns="http://www.w3.org/2000/svg" xmlns:xlink="http://www.w3.org/1999/xlink">
<defs>
<symbol id="icon-amazon_logo" viewBox="0 0 64 32">
<path    d="M38.42 21.708c-3.093 2.284-7.591 3.504-11.459 3.504-5.423 0-10.306-2.005-13.999-5.342-0.29-0.262-0.030-0.62 0.318-0.416 3.986 2.32 8.915 3.715 14.005 3.715 3.434 0 7.211-0.71 10.684-2.185 0.525-0.223 0.963 0.343 0.45 0.724zM39.709 20.235c-0.395-0.507-2.613-0.239-3.617-0.121-0.304 0.037-0.35-0.228-0.077-0.418 1.771-1.247 4.677-0.887 5.017-0.469s-0.088 3.333-1.753 4.724c-0.256 0.213-0.499 0.1-0.386-0.183 0.373-0.933 1.212-3.025 0.815-3.533z"></path>
<path  d="M36.166 10.894c0 0.181 0.14 0.304 0.314 0.304h2.829l-3.257 4.671c-0.197 0.3-0.199 0.636-0.199 0.834v1.228c0 0.176 0.197 0.381 0.386 0.278 1.845-0.98 4.062-0.884 5.732-0.009 0.205 0.107 0.4-0.1 0.4-0.276v-1.293c-0.021-0.174-0.075-0.351-0.288-0.471-0.947-0.534-2.049-0.69-3.094-0.664l2.811-4.014c0.259-0.36 0.406-0.588 0.409-0.762v-1.037c0-0.181-0.14-0.307-0.314-0.307h-5.425c-0.003-0-0.006-0-0.009-0-0.165 0-0.299 0.134-0.299 0.299 0 0.003 0 0.006 0 0.008v1.212zM16.361 18.451c0.176 0 0.318-0.137 0.318-0.307v-4.491c0-0.98-0.046-2.336 1.14-2.336 1.173 0 1.017 1.391 1.017 2.336l0.002 4.491c0 0.163 0.13 0.295 0.297 0.307h1.653c0.176 0 0.318-0.137 0.318-0.307v-4.491c0-0.481-0.017-1.195 0.153-1.623s0.587-0.694 0.987-0.694c0.478 0 0.848 0.161 0.971 0.729 0.078 0.339 0.046 1.23 0.046 1.588v4.496c0 0.163 0.137 0.295 0.297 0.307h1.653c0.176 0 0.318-0.137 0.318-0.307l0.004-5.347c0-0.908 0.107-1.943-0.416-2.656-0.462-0.641-1.219-0.926-1.91-0.926-0.973 0-1.88 0.499-2.28 1.57-0.465-1.070-1.11-1.57-2.143-1.57-1.017 0-1.771 0.499-2.173 1.57h-0.030v-1.107c-0.012-0.153-0.14-0.276-0.3-0.283h-1.539c-0.176 0-0.318 0.134-0.318 0.304v8.471c0.012 0.151 0.137 0.269 0.295 0.281h1.65zM46.878 9.227c2.449 0 3.775 2.103 3.775 4.778 0 2.584-1.465 4.634-3.775 4.634-2.4 0-3.715-2.103-3.715-4.724 0-2.637 1.326-4.693 3.715-4.693zM46.892 10.95c-1.216 0-1.293 1.658-1.293 2.691s-0.016 3.245 1.279 3.245c1.279 0 1.34-1.783 1.34-2.869 0-0.715-0.030-1.57-0.245-2.247-0.186-0.59-0.555-0.82-1.079-0.82zM53.823 18.457c0.177 0 0.321-0.137 0.323-0.307v-4.562c0-0.571 0.030-1.087 0.262-1.604 0.189-0.408 0.558-0.677 0.96-0.677 1.14 0 1.033 1.356 1.033 2.283v4.601c0.016 0.144 0.141 0.255 0.292 0.267h1.652c0.162 0 0.299-0.117 0.318-0.267v-5.333c0-0.82 0-1.96-0.427-2.637-0.465-0.732-1.18-0.998-1.927-0.998-1.14 0-1.788 0.553-2.25 1.711h-0.030v-1.296c-0.033-0.132-0.151-0.23-0.295-0.237h-1.531c-0.167 0-0.304 0.121-0.318 0.276l0.002 8.474c0 0.163 0.137 0.295 0.297 0.307h1.644zM31.835 14.403v-0.357c-1.195 0-2.456 0.255-2.456 1.662 0 0.713 0.372 1.196 1.005 1.196 0.462 0 0.88-0.286 1.142-0.75 0.325-0.577 0.309-1.107 0.309-1.75zM33.499 18.427c-0.109 0.098-0.267 0.105-0.389 0.039-0.548-0.455-0.647-0.667-0.947-1.1-0.906 0.924-1.548 1.2-2.721 1.2-1.39 0-2.47-0.857-2.47-2.572 0-1.34 0.724-2.252 1.76-2.698 0.896-0.395 2.147-0.464 3.104-0.573v-0.213c0-0.393 0.030-0.857-0.203-1.196-0.199-0.304-0.585-0.429-0.926-0.429-0.629 0-1.189 0.323-1.326 0.992-0.028 0.149-0.137 0.295-0.288 0.302l-1.6-0.172c-0.134-0.030-0.285-0.139-0.245-0.347 0.367-1.941 2.123-2.526 3.691-2.526 0.803 0 1.853 0.213 2.486 0.821 0.803 0.75 0.726 1.75 0.726 2.839v2.572c0 0.773 0.32 1.112 0.622 1.531 0.105 0.149 0.128 0.327-0.007 0.439l-1.262 1.101-0.002-0.005zM10.196 14.409v-0.357c-1.193 0-2.453 0.255-2.453 1.662 0 0.713 0.369 1.196 1.003 1.196 0.465 0 0.88-0.286 1.142-0.75 0.325-0.577 0.309-1.107 0.309-1.75zM11.86 18.432c-0.109 0.098-0.267 0.105-0.389 0.039-0.548-0.455-0.64-0.667-0.947-1.1-0.906 0.924-1.547 1.2-2.721 1.2-1.388 0.001-2.469-0.856-2.469-2.571 0-1.34 0.726-2.252 1.76-2.698 0.896-0.395 2.147-0.464 3.104-0.573v-0.213c0-0.393 0.030-0.857-0.199-1.196-0.203-0.304-0.587-0.429-0.926-0.429-0.629 0-1.191 0.323-1.333 0.992-0.028 0.149-0.137 0.295-0.285 0.302l-1.602-0.172c-0.134-0.030-0.283-0.139-0.245-0.347 0.369-1.941 2.123-2.526 3.691-2.526 0.803 0 1.853 0.213 2.486 0.821 0.803 0.75 0.726 1.75 0.726 2.839v2.572c0 0.773 0.32 1.112 0.622 1.531 0.107 0.149 0.13 0.327-0.005 0.439l-1.259 1.094-0.005-0.005z"></path>
</symbol>
<symbol id="icon-OK-Pay" viewBox="0 0 132 32">
<path fill="#889099" style="fill: var(--color3, #889099)" d="M129.987 2.498h-2.007c-1.284 0-2.238 0.862-2.977 1.914l-1.986 2.83c-0.001 0.001-0.001 0.002-0.002 0.003l-4.301 6.126-3.73-5.308c-0.017-0.027-0.026-0.051-0.045-0.078l-2.512-3.567c-0.741-1.051-1.704-1.912-2.988-1.912h-1.861c-1.285 0-2.117 0.86-1.373 1.908l2.527 3.574c0.005 0.007 0.012 0.014 0.018 0.022l7.193 10.155v11.497c0 1.287 1.052 2.338 2.336 2.337l0.87-0.003c1.285-0.001 2.336-1.057 2.336-2.344v-11.499l7.662-10.815c0.024-0.031 0.055-0.061 0.077-0.093l2.003-2.837c0.743-1.051 0.044-1.911-1.24-1.911z"></path>
<path fill="#889099" style="fill: var(--color3, #889099)" d="M46.14 16.322l7.217-6.948c0.033-0.030 5.102-4.909 5.102-4.909 0.912-0.879-0.069-1.966-1.319-1.966h-2.745c-1.249 0-1.881 0.721-2.791 1.604l-5.343 5.179c-0.005 0.004-0.007 0.009-0.012 0.015l-3.438 3.333v-3.779h-0.015c0.003-0.051 0.015-0.1 0.015-0.151v-3.859c0-1.287-1.022-2.342-2.272-2.342h-1.020c-1.249 0-2.272 1.055-2.272 2.342v3.859c0 0.051 0.011 0.1 0.015 0.151h-0.015v20.808c0 1.287 1.022 2.342 2.272 2.342h1.020c1.25 0 2.272-1.054 2.272-2.342v-9.317l4.898 5.040h0.006l4.821 4.966c0.884 0.909 1.494 1.654 2.743 1.654h2.748c1.249 0 1.782-1.523 0.897-2.433l-12.785-13.246z"></path>
<path fill="#889099" style="fill: var(--color3, #889099)" d="M100.477 19.209h-5.378c-0.646 0-0.974-0.487-0.732-1.084l2.97-7.28c0.244-0.597 0.642-0.597 0.887-0.001l2.984 7.282c0.244 0.596-0.085 1.083-0.731 1.083zM111.28 29.080h0.014l-9.376-23.312h-0.004l-0.44-1.095c-0.48-1.196-1.929-2.175-3.221-2.175h-0.932c-1.291 0-2.74 0.98-3.216 2.177l-0.434 1.092h-0.016l-9.689 24.060c-0.483 1.195 0.181 2.172 1.472 2.172h2.090c1.291 0 1.898-0.988 2.347-2.195l0.315-0.848h0.013l1.888-5.021h11.417l0.155 0.403 0.115 0.24 1.684 4.501h0.006l0.271 0.725c0.45 1.208 1.239 2.195 2.532 2.195h1.848c1.293 0 1.953-0.976 1.467-2.17l-0.305-0.75z"></path>
<path fill="#889099" style="fill: var(--color3, #889099)" d="M82.22 13.565c-0.216 0.546-0.531 1.002-0.953 1.376h0.001c-0.846 0.746-2.105 1.153-3.801 1.153h-3.063c-0.656 0-1.192-0.527-1.192-1.171v-6.567c0-0.643 0.536-1.171 1.192-1.171h3.063c1.696 0 2.956 0.407 3.8 1.155 0.423 0.373 0.737 0.825 0.953 1.373 0.213 0.546 0.325 1.184 0.325 1.918 0 0.741-0.111 1.384-0.325 1.935zM87.751 15.57c0.477-1.15 0.713-2.467 0.713-3.94 0-1.461-0.236-2.77-0.713-3.914-0.475-1.143-1.193-2.12-2.145-2.904-1.889-1.554-4.64-2.314-8.139-2.314h-7.571c-1.311 0-2.384 1.055-2.384 2.342v24.818c0 1.287 1.073 2.342 2.384 2.342h0.932c1.311 0 2.384-1.054 2.384-2.342v-8.878h4.256c3.499 0 6.25-0.754 8.138-2.305 0.949-0.779 1.671-1.757 2.146-2.905z"></path>
<path fill="#889099" style="fill: var(--color3, #889099)" d="M26.666 24.284c-0.782 0.98-1.677 1.695-2.71 2.17s-2.214 0.716-3.565 0.716c-1.355 0-2.536-0.241-3.573-0.716-1.041-0.475-1.94-1.197-2.729-2.178-0.926-1.143-1.579-2.574-1.974-4.263l-0.364-2.458c-0.011-0.148-0.019-0.459-0.023-0.793-0.007-0.35-0.011-0.74-0.011-1.058 0-0.273 0.004-0.498 0.008-0.591l0.282-2.458c0.368-1.922 1.064-3.532 2.083-4.8l-0.004 0.008h0.004c0.789-0.989 1.688-1.704 2.729-2.178 1.037-0.475 2.218-0.716 3.573-0.716 1.352 0 2.532 0.241 3.565 0.716 1.033 0.474 1.928 1.189 2.71 2.17 1.564 1.96 2.376 4.713 2.376 8.223 0 3.5-0.812 6.246-2.376 8.206zM30.975 4.517c-2.641-2.909-6.233-4.387-10.584-4.379-4.371-0.008-7.971 1.47-10.615 4.379-1.947 2.132-3.178 4.831-3.685 8.020v0.008l-0.236 2.512v0.016c-0.016 0.319-0.035 0.645-0.035 1.004 0 0.529 0.023 1.042 0.054 1.54v0.016l0.321 2.512v0.008c0.558 2.948 1.741 5.468 3.581 7.483 2.645 2.893 6.245 4.372 10.615 4.364 4.351 0.008 7.943-1.47 10.584-4.379 2.624-2.887 3.945-6.791 3.945-11.544 0-4.761-1.316-8.674-3.945-11.56z"></path>
<path fill="#889099" style="fill: var(--color3, #889099)" d="M20.314 14.299h-19.15l1.802-3.54h19.15l-1.802 3.54z"></path>
<path fill="#889099" style="fill: var(--color3, #889099)" d="M16.726 21.38h-16.726l1.898-3.54h16.726l-1.898 3.54z"></path>
</symbol>
<symbol id="icon-business_finance" viewBox="0 0 77 32">
<path d="M71.002 8.094h-1.944c-0.001 0-0.002 0-0.003 0l-0.001-0c-0.445 0-0.897 0.34-1.023 0.773-0.005 0.018-0.014 0.034-0.018 0.053 0 0-0.046 0.211-0.127 0.576l-2.671 12.078c-0.062 0.273-0.103 0.451-0.115 0.497l0.005 0.007c-0.092 0.422 0.162 0.771 0.579 0.81l0.005 0.008h2.018c0.442 0 0.891-0.337 1.021-0.764 0.006-0.021 0.016-0.040 0.021-0.061l2.913-13.152-0.004-0.001c0.099-0.45-0.192-0.823-0.657-0.823zM61.030 19.964c-0.27 0.169-0.555 0.314-0.853 0.438-0.401 0.162-0.782 0.246-1.133 0.246-0.54 0-0.955-0.076-1.236-0.239-0.281-0.155-0.428-0.423-0.423-0.808 0-0.444 0.103-0.789 0.315-1.059 0.214-0.26 0.532-0.469 0.927-0.625 0.392-0.133 0.875-0.242 1.432-0.32 0.495-0.062 1.475-0.175 1.6-0.176s0.209-0.070 0.153 0.263c-0.025 0.145-0.308 1.303-0.437 1.83-0.038 0.158-0.248 0.388-0.345 0.45 0 0 0.096-0.062 0 0zM64.875 11.822c-0.825-0.459-2.116-0.692-3.881-0.692-0.873 0-1.751 0.070-2.632 0.206-0.646 0.099-0.713 0.115-1.114 0.202-0.826 0.179-0.954 1.005-0.954 1.005l-0.265 1.089c-0.151 0.696 0.247 0.668 0.424 0.614 0.361-0.109 0.556-0.217 1.292-0.383 0.703-0.159 1.447-0.279 2.040-0.274 0.87 0 1.531 0.095 1.971 0.278 0.44 0.191 0.658 0.517 0.658 0.984 0.001 0.111 0.004 0.215-0.036 0.307-0.036 0.085-0.106 0.168-0.313 0.196-1.241 0.074-2.132 0.187-3.205 0.343-1.059 0.149-1.985 0.403-2.759 0.756-0.825 0.365-1.443 0.854-1.869 1.474-0.414 0.622-0.623 1.376-0.624 2.264 0 0.839 0.302 1.523 0.887 2.054 0.592 0.524 1.361 0.784 2.292 0.784 0.582-0.004 1.037-0.046 1.363-0.127 0.323-0.081 0.675-0.197 1.047-0.358 0.278-0.116 0.578-0.284 0.895-0.494s0.537-0.361 0.818-0.545l0.010 0.018-0.079 0.349c-0 0.003-0.005 0.005-0.005 0.008l0.003 0.007c-0.091 0.42 0.163 0.77 0.58 0.811l0.005 0.007h0.037l0.002 0.002c0.277 0 1.228-0 1.672-0.002h0.31c0.020 0 0.023-0.006 0.031-0.011 0.426-0.052 0.835-0.398 0.931-0.814l1.587-6.834c0.036-0.161 0.065-0.346 0.083-0.56 0.020-0.216 0.043-0.393 0.036-0.522 0.004-0.967-0.413-1.682-1.236-2.142zM55.319 10.265c-0.271-0.526-0.68-0.949-1.197-1.278-0.53-0.329-1.16-0.558-1.889-0.692-0.721-0.126-1.579-0.198-2.556-0.2l-4.546 0.002c-0.468 0.008-0.927 0.375-1.036 0.826l-3.056 13.27c-0.111 0.451 0.193 0.827 0.652 0.824l2.181-0.004c0.463 0.004 0.934-0.369 1.043-0.82l0.737-3.22c0.103-0.451 0.574-0.829 1.044-0.823h0.62c2.661 0 4.724-0.545 6.201-1.631 1.474-1.091 2.215-2.522 2.215-4.303-0.005-0.777-0.137-1.432-0.414-1.951zM50.629 14.605c-0.651 0.472-1.565 0.709-2.741 0.709h-0.541c-0.468 0.005-0.77-0.372-0.659-0.824l0.652-2.817c0.097-0.445 0.572-0.825 1.033-0.821l0.714-0.004c0.834 0.004 1.457 0.143 1.888 0.42 0.423 0.28 0.629 0.714 0.632 1.293 0.002 0.882-0.325 1.56-0.979 2.044z"></path>
<path d="M39.909 11.125c-0.413 0-0.956 0.336-1.212 0.741 0 0-2.765 4.757-3.037 5.232-0.148 0.256-0.297 0.093-0.322-0.002-0.020-0.116-0.857-5.199-0.857-5.199-0.094-0.409-0.52-0.761-1.053-0.759l-1.724 0.003c-0.416 0-0.675 0.334-0.583 0.738 0 0 1.318 7.497 1.575 9.26 0.128 0.975-0.013 1.148-0.013 1.148l-1.709 2.99c-0.25 0.405-0.113 0.738 0.3 0.738l1.998-0.002c0.414 0 0.962-0.331 1.208-0.736l7.687-13.046c0 0 0.735-1.115 0.057-1.105-0.462 0.007-2.316 0-2.316 0zM25.476 19.945c-0.269 0.169-0.553 0.313-0.852 0.437-0.401 0.16-0.782 0.246-1.133 0.246-0.538 0-0.954-0.076-1.234-0.238-0.28-0.155-0.428-0.423-0.423-0.807 0-0.442 0.104-0.787 0.316-1.056 0.214-0.26 0.531-0.469 0.925-0.625 0.393-0.133 0.877-0.241 1.431-0.319 0.495-0.062 1.474-0.174 1.599-0.176 0.124-0 0.208-0.070 0.152 0.263-0.024 0.144-0.307 1.302-0.436 1.827-0.039 0.158-0.249 0.388-0.344 0.449 0 0 0.095-0.061 0 0zM29.316 11.815c-0.824-0.459-2.113-0.69-3.876-0.69-0.872 0-1.749 0.069-2.628 0.206-0.647 0.098-0.712 0.115-1.113 0.202-0.825 0.18-0.952 1.003-0.952 1.003l-0.265 1.088c-0.15 0.695 0.247 0.666 0.424 0.612 0.359-0.108 0.556-0.216 1.291-0.382 0.701-0.158 1.445-0.277 2.036-0.273 0.869 0 1.529 0.095 1.968 0.277 0.44 0.191 0.656 0.517 0.656 0.982 0.003 0.111 0.005 0.215-0.034 0.306-0.037 0.086-0.107 0.168-0.314 0.195-1.238 0.075-2.127 0.187-3.201 0.343-1.057 0.148-1.982 0.403-2.755 0.755-0.824 0.365-1.44 0.854-1.865 1.471-0.415 0.621-0.623 1.373-0.624 2.26 0 0.837 0.302 1.521 0.885 2.051 0.591 0.523 1.359 0.783 2.289 0.783 0.581-0.004 1.036-0.047 1.362-0.127 0.322-0.082 0.674-0.196 1.044-0.357 0.279-0.116 0.578-0.284 0.894-0.494s0.536-0.36 0.819-0.544l0.009 0.017-0.079 0.348c-0.001 0.003-0.005 0.006-0.005 0.009l0.003 0.006c-0.090 0.421 0.162 0.769 0.579 0.81l0.005 0.008h0.036l0.001 0.003c0.277 0 1.227-0.002 1.67-0.003h0.31c0.021 0 0.024-0.007 0.030-0.011 0.427-0.053 0.833-0.399 0.93-0.812l1.585-6.823c0.036-0.16 0.065-0.345 0.081-0.558 0.021-0.217 0.044-0.393 0.038-0.521 0.004-0.966-0.413-1.68-1.234-2.139zM19.403 10.262c-0.27-0.525-0.679-0.947-1.195-1.276-0.53-0.328-1.159-0.557-1.887-0.691-0.72-0.126-1.577-0.198-2.552-0.2l-4.54 0.002c-0.467 0.008-0.926 0.374-1.034 0.825l-3.052 13.249c-0.111 0.45 0.192 0.825 0.651 0.823l2.178-0.004c0.462 0.004 0.933-0.369 1.042-0.819l0.736-3.215c0.103-0.451 0.573-0.828 1.043-0.822h0.619c2.657 0 4.717-0.544 6.193-1.628 1.472-1.089 2.212-2.518 2.212-4.295-0.005-0.776-0.137-1.43-0.414-1.948zM14.719 14.595c-0.65 0.472-1.563 0.708-2.737 0.708h-0.54c-0.467 0.005-0.769-0.371-0.658-0.823l0.651-2.812c0.097-0.445 0.571-0.823 1.032-0.82l0.713-0.004c0.833 0.004 1.456 0.143 1.886 0.419 0.423 0.28 0.628 0.713 0.631 1.291 0.002 0.88-0.325 1.558-0.978 2.040z"></path>
</symbol>
<symbol id="icon-amex_logo" viewBox="0 0 33 32">
<path fill="#889099" style="fill: var(--color3, #889099)" d="M0.005 0v31.97h31.97v-31.97h-31.97z"></path>
<path fill="#323642" style="fill: var(--color4, #323642)" d="M30.462 15.502h-2.4l-0.522-0.829v0.829h-3.455l-0.307-0.802h-0.57l-0.301 0.802h-2.061c-0.188 0-0.386-0.015-0.585-0.051-0.122-0.022-0.244-0.052-0.364-0.091-0.097-0.031-0.194-0.069-0.288-0.112s-0.186-0.094-0.275-0.152v0.406h-3.444l-0.624-0.813v0.813h-12.465l-0.307-0.802h-0.571l-0.301 0.802h-1.62v-3.197l1.023-2.39h2.287l0.506 1.142v-1.142h2.804l0.334 0.974 0.328-0.974h12.050v0.437c0.105-0.070 0.216-0.131 0.331-0.185 0.099-0.045 0.201-0.084 0.306-0.117 0.134-0.042 0.273-0.074 0.416-0.096 0.168-0.026 0.341-0.039 0.518-0.039h3.692l0.5 1.13v-1.13h2.234l0.57 0.893v-0.893h2.562v5.587zM31.979 17.424v5.242c-0.126 0.078-0.263 0.144-0.41 0.197-0.26 0.094-0.551 0.147-0.861 0.147h-10.764l-0.624-0.812v0.812h-2.481v-1.417c-0.356 0.132-0.758 0.212-1.2 0.212h0.037v1.205h-3.557l-0.511-0.727-0.495 0.727h-5.683v-5.586h5.705l0.5 0.716 0.506-0.716h19.838z"></path>
<path fill="#889099" style="fill: var(--color3, #889099)" d="M9.321 18.334h-3.014v3.768h3.014v-0.759h-2.109v-0.759h2.061v-0.754h-2.061v-0.732h2.109v-0.764zM12.459 22.101l-0.926-1.211-0.926 1.211h-1.098l1.502-1.884-1.507-1.884h1.13l0.92 1.195 0.926-1.195h1.098l-1.502 1.868 1.512 1.9h-1.13zM13.789 22.101h0.904v-1.244h1.136c0.824 0 1.335-0.538 1.335-1.265 0-0.748-0.5-1.259-1.302-1.259h-2.072v3.768zM18.982 20.745l1.125 1.356h1.125l-1.254-1.389c0.641-0.119 1.022-0.581 1.022-1.184 0-0.705-0.5-1.195-1.302-1.195h-2.045v3.768h0.904v-1.356h0.425zM24.666 18.334v0.764h-2.11v0.732h2.061v0.754h-2.061v0.759h2.11v0.759h-3.014v-3.768h3.014zM27.147 21.348h-1.932v0.754h1.905c0.813 0 1.297-0.495 1.297-1.2 0-0.673-0.436-1.065-1.168-1.065h-0.872c-0.215 0-0.366-0.14-0.366-0.361 0-0.226 0.151-0.377 0.366-0.377h1.636l0.334-0.764h-1.943c-0.813 0-1.297 0.495-1.297 1.173 0 0.694 0.458 1.093 1.174 1.093h0.866c0.215 0 0.371 0.14 0.371 0.366 0 0.231-0.156 0.382-0.371 0.382zM30.731 21.348h-1.932v0.754h1.905c0.813 0 1.297-0.495 1.297-1.2 0-0.673-0.436-1.065-1.168-1.065h-0.872c-0.216 0-0.366-0.14-0.366-0.361 0-0.226 0.15-0.377 0.366-0.377h1.636l0.334-0.764h-1.943c-0.813 0-1.297 0.495-1.297 1.173 0 0.694 0.458 1.093 1.174 1.093h0.866c0.215 0 0.371 0.14 0.371 0.366 0 0.231-0.156 0.382-0.371 0.382zM19.617 19.103c0.323 0 0.495 0.21 0.495 0.468s-0.172 0.462-0.495 0.462h-1.060v-0.931h1.060zM16.253 19.598c0 0.253-0.161 0.463-0.479 0.463h-1.082v-0.925h1.082c0.318 0 0.479 0.204 0.479 0.462z"></path>
<path fill="#889099" style="fill: var(--color3, #889099)" d="M4.429 14.593l-1.609-3.768h-1.189l-1.615 3.768h0.963l0.318-0.807h1.792l0.323 0.807h1.017zM5.495 11.003l1.044 3.59h0.818l1.044-3.568-0.021 0.99v2.578h0.877v-3.768h-1.593l-0.716 2.669-0.721-2.669h-1.588v3.768h0.877v-2.572l-0.022-1.017zM13.014 11.589h-2.11v0.732h2.061v0.753h-2.061v0.748h2.11v0.77h-3.014v-3.768h3.014v0.764zM15.005 13.236l1.125 1.356h1.125l-1.254-1.389c0.641-0.118 1.023-0.581 1.023-1.184 0-0.705-0.501-1.195-1.303-1.195h-2.045v3.768h0.904v-1.356h0.425zM18.444 14.593v-3.768h-0.904v3.768h0.904zM20.753 14.593c-1.087-0.005-1.738-0.732-1.738-1.851v-0.065c0-1.071 0.635-1.852 1.798-1.852h1.055v0.813h-0.979c-0.646 0-0.974 0.447-0.974 1.044v0.054c0 0.667 0.366 1.055 0.985 1.055h0.274l-0.371 0.802h-0.049zM25.715 14.593l-1.609-3.768h-1.19l-1.614 3.768h0.963l0.318-0.807h1.792l0.323 0.807h1.017zM26.807 12.338l-0.011-0.312 0.188 0.312 1.442 2.255h1.055v-3.768h-0.883v2.18l0.011 0.28-0.167-0.28-1.41-2.18h-1.108v3.768h0.882v-2.255zM23.202 12.23l0.274-0.705 0.274 0.705 0.334 0.834h-1.211l0.328-0.834zM15.64 11.595c0.323 0 0.495 0.21 0.495 0.468s-0.172 0.463-0.495 0.463h-1.060v-0.931h1.060zM1.916 12.23l0.275-0.705 0.274 0.705 0.334 0.834h-1.211l0.328-0.834z"></path>
</symbol>
<symbol id="icon-mc_vrt_pos" viewBox="0 0 41 32">
<path fill="#889099" style="fill: var(--color3, #889099)" d="M38.652 29.827v1.639h-0.692v-0.401c-0.248 0.319-0.634 0.499-1.038 0.484-0.955 0-1.729-0.774-1.729-1.729s0.774-1.729 1.729-1.729c0.404-0.015 0.79 0.165 1.038 0.484v-1.729h0.692v2.981zM17.21 28.173v-1.003h-0.726v1.003h-0.657v0.657h0.671v1.522c0 0.768 0.297 1.224 1.148 1.224 0.318 0.001 0.629-0.088 0.899-0.256l-0.207-0.616c-0.193 0.115-0.412 0.179-0.636 0.187-0.346 0-0.477-0.221-0.477-0.553v-1.508h1.176l-0.007-0.657h-1.183zM7.648 29.405c0.024-0.353-0.104-0.7-0.353-0.951s-0.594-0.384-0.947-0.363c-0.466-0.031-0.911 0.195-1.162 0.588-0.229-0.381-0.648-0.607-1.093-0.588-0.387-0.020-0.755 0.167-0.968 0.491v-0.408h-0.719v3.306h0.726v-1.819c-0.031-0.229 0.041-0.46 0.198-0.63s0.381-0.261 0.611-0.249c0.477 0 0.719 0.311 0.719 0.872v1.84h0.726v-1.833c-0.030-0.229 0.043-0.459 0.199-0.628s0.38-0.261 0.61-0.25c0.491 0 0.726 0.311 0.726 0.872v1.84l0.726-0.014v-2.075zM24.528 28.090l-0.014-0.014c0.174 0.001 0.348 0.031 0.512 0.090l-0.221 0.692c-0.143-0.057-0.296-0.085-0.45-0.083-0.456 0-0.692 0.304-0.692 0.851v1.854h-0.719v-3.306h0.712v0.401c0.18-0.309 0.514-0.495 0.872-0.484zM13.904 28.090c-0.837 0-1.383 0.401-1.383 1.058 0 0.54 0.401 0.872 1.141 0.975l0.346 0.048c0.394 0.055 0.581 0.159 0.581 0.346 0 0.256-0.263 0.401-0.754 0.401-0.395 0.011-0.782-0.11-1.1-0.346l-0.346 0.56c0.419 0.293 0.921 0.443 1.432 0.429 0.955 0 1.508-0.45 1.508-1.079s-0.436-0.885-1.155-0.989l-0.346-0.048c-0.311-0.041-0.56-0.104-0.56-0.325s0.235-0.387 0.629-0.387c0.364 0.004 0.722 0.102 1.037 0.284l0.318-0.581c-0.407-0.242-0.875-0.362-1.349-0.346zM34.52 28.090l-0.014-0.014c0.174 0.001 0.347 0.031 0.512 0.090l-0.221 0.692c-0.143-0.057-0.296-0.085-0.45-0.083-0.456 0-0.692 0.304-0.692 0.851v1.854h-0.719v-3.306h0.712v0.401c0.18-0.309 0.514-0.495 0.871-0.484zM25.751 31.074c0.336 0.329 0.795 0.502 1.264 0.475 0.432 0.022 0.856-0.119 1.19-0.394l-0.346-0.581c-0.249 0.19-0.552 0.294-0.865 0.297-0.551-0.045-0.976-0.505-0.976-1.058s0.425-1.014 0.976-1.058c0.313 0.003 0.616 0.108 0.865 0.297l0.346-0.581c-0.333-0.276-0.758-0.416-1.19-0.394-0.469-0.027-0.928 0.146-1.264 0.475s-0.517 0.785-0.5 1.254v0.014c-0.017 0.47 0.164 0.925 0.5 1.254zM31.988 29.82v1.646h-0.719v-0.401c-0.248 0.319-0.634 0.499-1.038 0.484-0.955 0-1.729-0.774-1.729-1.729s0.774-1.729 1.729-1.729c0.404-0.015 0.79 0.165 1.038 0.484v-0.401h0.719v1.646zM30.346 28.88c-0.543-0.020-1.003 0.397-1.035 0.94-0.018 0.276 0.079 0.548 0.27 0.748s0.456 0.313 0.733 0.31c0.544-0.003 0.985-0.44 0.994-0.983s-0.419-0.995-0.962-1.015zM20.631 28.090l0.010 0.007c0.927 0 1.57 0.692 1.57 1.729v0.277h-2.455c0.056 0.493 0.495 0.852 0.989 0.809 0.35-0.005 0.688-0.127 0.961-0.346l0.346 0.533c-0.386 0.315-0.875 0.475-1.373 0.45-0.955 0.013-1.74-0.75-1.753-1.705s0.75-1.74 1.705-1.753zM21.215 28.962c-0.157-0.15-0.367-0.232-0.585-0.228h-0.014c-0.462-0.016-0.852 0.341-0.878 0.802h1.729c-0.005-0.217-0.095-0.424-0.252-0.575zM39.861 30.999c0.042 0.001 0.084 0.009 0.123 0.024s0.076 0.040 0.107 0.069c0.030 0.030 0.055 0.065 0.073 0.104 0.035 0.082 0.035 0.174 0 0.256-0.018 0.039-0.042 0.074-0.073 0.104s-0.068 0.053-0.107 0.069c-0.041 0.018-0.086 0.028-0.131 0.028-0.134-0.001-0.255-0.079-0.311-0.201-0.035-0.082-0.035-0.174 0-0.256 0.018-0.039 0.042-0.074 0.073-0.104s0.068-0.053 0.107-0.069c0.045-0.018 0.093-0.026 0.142-0.024h-0.002zM39.855 31.583c0.033-0 0.067-0.007 0.097-0.021s0.057-0.032 0.080-0.055c0.090-0.098 0.090-0.248 0-0.346-0.023-0.023-0.050-0.042-0.080-0.055-0.032-0.014-0.066-0.021-0.1-0.021s-0.069 0.007-0.1 0.021c-0.031 0.013-0.059 0.032-0.083 0.055-0.090 0.098-0.090 0.248 0 0.346 0.024 0.024 0.052 0.043 0.083 0.055 0.035 0.015 0.073 0.022 0.111 0.021h-0.007zM39.963 31.2c0.021 0.018 0.033 0.045 0.031 0.073 0.001 0.023-0.008 0.046-0.024 0.062-0.020 0.018-0.046 0.029-0.073 0.031l0.1 0.114h-0.080l-0.093-0.114h-0.031v0.114h-0.066v-0.304l0.145-0.003c0.032-0.002 0.064 0.008 0.090 0.028zM39.797 31.231v0.083h0.076c0.014 0.004 0.028 0.004 0.042 0 0.005-0.010 0.005-0.021 0-0.031 0.005-0.010 0.005-0.021 0-0.031-0.014-0.004-0.028-0.004-0.042 0l-0.076-0.021zM37.028 28.887c-0.543-0.020-1.003 0.397-1.035 0.94-0.018 0.276 0.080 0.548 0.27 0.749s0.456 0.313 0.733 0.31c0.544-0.003 0.985-0.44 0.994-0.983s-0.419-0.995-0.962-1.015zM11.705 29.827v1.639h-0.719v-0.401c-0.248 0.319-0.634 0.499-1.038 0.484-0.955 0-1.729-0.774-1.729-1.729s0.774-1.729 1.729-1.729c0.404-0.015 0.79 0.165 1.038 0.484v-0.401h0.719v1.653zM10.063 28.887c-0.543-0.020-1.003 0.397-1.035 0.94h-0.007c-0.018 0.277 0.080 0.55 0.272 0.751s0.46 0.313 0.738 0.307c0.544-0.003 0.985-0.44 0.994-0.983s-0.419-0.995-0.962-1.015z"></path>
<path fill="#889099" style="fill: var(--color3, #889099)" opacity="0.4" d="M15.706 12.77c-0.004-3.821 1.75-7.431 4.755-9.791-5.105-4.012-12.435-3.427-16.84 1.342s-4.405 12.123 0 16.893c4.405 4.77 11.735 5.354 16.84 1.342-3.005-2.358-4.758-5.967-4.755-9.787v0z"></path>
<path fill="#889099" style="fill: var(--color3, #889099)" d="M40.606 12.77c-0 4.767-2.722 9.115-7.009 11.198s-9.388 1.535-13.135-1.411c3.003-2.36 4.757-5.969 4.757-9.789s-1.754-7.428-4.757-9.789c3.747-2.946 8.848-3.494 13.135-1.411s7.009 6.431 7.009 11.198v0.003z"></path>
<path fill="#889099" style="fill: var(--color3, #889099)" opacity="0.65" d="M20.572 22.879c-2.994-2.307-4.923-5.928-4.923-10s1.929-7.693 4.923-10c2.994 2.307 4.923 5.928 4.923 10s-1.929 7.693-4.923 10v0z"></path>
<path fill="#889099" style="fill: var(--color3, #889099)" d="M39.417 20.081v0.401h-0.073v-0.401h-0.176v-0.083h0.411v0.083h-0.163zM40.215 19.998v0.484l-0.073 0.003v-0.367l-0.135 0.315h-0.093l-0.135-0.315v0.363h-0.090v-0.484h0.111l0.145 0.346 0.145-0.346h0.124z"></path>
</symbol>
<symbol id="icon-Bitcoin" viewBox="0 0 105 32">
<path fill="#889099" style="fill: var(--color3, #889099)" d="M32.090 6.61c0.887 0 1.653 0.158 2.297 0.469 0.647 0.314 1.181 0.736 1.609 1.267 0.423 0.534 0.737 1.159 0.94 1.873 0.202 0.718 0.303 1.488 0.303 2.314 0 1.267-0.233 2.466-0.705 3.595-0.471 1.131-1.111 2.112-1.925 2.948s-1.773 1.495-2.88 1.981c-1.106 0.488-2.307 0.731-3.597 0.731-0.167 0-0.46-0.004-0.875-0.014-0.414-0.008-0.891-0.050-1.424-0.122-0.537-0.074-1.104-0.184-1.704-0.332-0.599-0.145-1.168-0.348-1.704-0.606l4.79-20.026 4.291-0.662-1.715 7.106c0.367-0.165 0.737-0.293 1.106-0.385 0.371-0.090 0.767-0.138 1.191-0.138zM28.491 18.403c0.646 0 1.255-0.158 1.827-0.469 0.574-0.31 1.069-0.73 1.483-1.253 0.414-0.525 0.743-1.116 0.983-1.778s0.36-1.35 0.36-2.067c0-0.881-0.148-1.569-0.443-2.065-0.295-0.495-0.841-0.744-1.634-0.744-0.26 0-0.595 0.049-1.010 0.137-0.416 0.095-0.789 0.288-1.123 0.58l-1.826 7.548c0.11 0.018 0.208 0.037 0.291 0.054 0.081 0.018 0.171 0.032 0.261 0.041 0.095 0.011 0.203 0.016 0.334 0.016s0.296-0.001 0.499-0.001z"></path>
<path fill="#889099" style="fill: var(--color3, #889099)" d="M41.691 21.405h-4.098l3.461-14.489h4.126l-3.489 14.489zM43.685 5.152c-0.572 0-1.091-0.17-1.551-0.509-0.464-0.337-0.694-0.857-0.694-1.557 0-0.385 0.079-0.747 0.235-1.087 0.158-0.34 0.365-0.634 0.624-0.882 0.259-0.247 0.559-0.444 0.899-0.593 0.343-0.146 0.707-0.219 1.095-0.219 0.572 0 1.088 0.169 1.549 0.509 0.46 0.341 0.692 0.861 0.692 1.556 0 0.386-0.078 0.75-0.236 1.090-0.157 0.34-0.363 0.633-0.622 0.882-0.256 0.247-0.559 0.444-0.899 0.591-0.343 0.148-0.705 0.219-1.093 0.219z"></path>
<path fill="#889099" style="fill: var(--color3, #889099)" d="M48.771 3.307l4.293-0.662-1.054 4.27h4.597l-0.83 3.36h-4.57l-1.217 5.069c-0.112 0.422-0.176 0.817-0.193 1.183-0.020 0.369 0.027 0.685 0.137 0.951s0.308 0.472 0.596 0.618c0.286 0.148 0.695 0.222 1.231 0.222 0.442 0 0.873-0.041 1.289-0.125 0.414-0.081 0.833-0.195 1.258-0.344l0.306 3.142c-0.554 0.202-1.153 0.376-1.8 0.523-0.647 0.148-1.413 0.219-2.299 0.219-1.273 0-2.26-0.187-2.963-0.562-0.702-0.378-1.199-0.893-1.496-1.545-0.293-0.65-0.424-1.399-0.387-2.243 0.038-0.846 0.166-1.736 0.387-2.673l2.716-11.402z"></path>
<path fill="#889099" style="fill: var(--color3, #889099)" d="M56.425 15.621c0-1.248 0.203-2.425 0.609-3.527 0.405-1.103 0.989-2.067 1.746-2.895 0.755-0.824 1.674-1.476 2.756-1.954 1.077-0.477 2.282-0.717 3.612-0.717 0.831 0 1.575 0.078 2.228 0.235 0.656 0.158 1.251 0.363 1.787 0.619l-1.413 3.198c-0.369-0.149-0.753-0.28-1.149-0.4-0.397-0.121-0.881-0.18-1.453-0.18-1.367 0-2.449 0.469-3.254 1.403-0.801 0.936-1.205 2.195-1.205 3.775 0 0.937 0.203 1.693 0.611 2.273 0.405 0.579 1.154 0.867 2.242 0.867 0.537 0 1.054-0.056 1.551-0.165 0.5-0.11 0.941-0.248 1.33-0.413l0.306 3.277c-0.518 0.201-1.090 0.382-1.717 0.539-0.628 0.153-1.377 0.231-2.244 0.231-1.145 0-2.114-0.166-2.907-0.495-0.793-0.333-1.449-0.776-1.965-1.337-0.519-0.562-0.892-1.218-1.122-1.971-0.231-0.75-0.348-1.541-0.348-2.365v0z"></path>
<path fill="#889099" style="fill: var(--color3, #889099)" d="M74.63 21.791c-0.978 0-1.828-0.148-2.548-0.441-0.719-0.294-1.313-0.705-1.785-1.239-0.471-0.531-0.825-1.161-1.066-1.886s-0.358-1.528-0.358-2.407c0-1.104 0.178-2.208 0.538-3.308 0.358-1.102 0.889-2.092 1.594-2.973 0.698-0.882 1.559-1.603 2.574-2.166 1.013-0.558 2.179-0.839 3.487-0.839 0.96 0 1.806 0.148 2.536 0.441 0.727 0.294 1.326 0.708 1.8 1.239 0.468 0.534 0.825 1.161 1.064 1.888 0.241 0.723 0.36 1.529 0.36 2.409 0 1.101-0.176 2.204-0.525 3.308-0.349 1.098-0.867 2.091-1.551 2.973-0.682 0.881-1.536 1.601-2.561 2.162-1.025 0.559-2.213 0.839-3.56 0.839zM76.678 10.001c-0.608 0-1.145 0.176-1.605 0.522-0.461 0.35-0.849 0.791-1.162 1.322-0.316 0.533-0.55 1.117-0.708 1.749-0.157 0.635-0.234 1.234-0.234 1.804 0 0.919 0.149 1.635 0.442 2.15 0.297 0.512 0.831 0.77 1.607 0.77 0.61 0 1.144-0.174 1.607-0.525 0.459-0.348 0.847-0.788 1.162-1.321 0.314-0.531 0.55-1.116 0.708-1.749 0.155-0.633 0.234-1.235 0.234-1.804 0-0.917-0.148-1.634-0.444-2.149-0.295-0.514-0.831-0.771-1.607-0.771z"></path>
<path fill="#889099" style="fill: var(--color3, #889099)" d="M87.29 21.405h-4.101l3.461-14.489h4.129l-3.489 14.489zM89.281 5.152c-0.572 0-1.090-0.17-1.549-0.509-0.462-0.337-0.694-0.857-0.694-1.557 0-0.385 0.079-0.747 0.236-1.087s0.364-0.634 0.624-0.882c0.258-0.247 0.56-0.444 0.9-0.593 0.34-0.146 0.705-0.219 1.093-0.219 0.573 0 1.091 0.169 1.551 0.509 0.462 0.341 0.694 0.861 0.694 1.556 0 0.386-0.083 0.75-0.238 1.090s-0.362 0.633-0.621 0.882c-0.26 0.247-0.558 0.444-0.898 0.591-0.343 0.148-0.707 0.219-1.097 0.219z"></path>
<path fill="#889099" style="fill: var(--color3, #889099)" d="M93.73 7.576c0.311-0.090 0.659-0.199 1.037-0.318 0.379-0.118 0.803-0.229 1.276-0.328 0.468-0.102 0.996-0.184 1.577-0.25s1.242-0.097 1.979-0.097c2.161 0 3.651 0.626 4.474 1.875 0.821 1.249 0.964 2.958 0.43 5.123l-1.884 7.823h-4.125l1.827-7.659c0.111-0.478 0.199-0.941 0.263-1.393 0.066-0.447 0.062-0.841-0.014-1.183-0.072-0.337-0.244-0.613-0.51-0.827-0.271-0.212-0.68-0.316-1.234-0.316-0.534 0-1.078 0.057-1.633 0.167l-2.686 11.21h-4.127l3.351-13.829z"></path>
<path fill="#889099" style="fill: var(--color3, #889099)" d="M44.214 30.040l-0.804 1.453h-0.87c0.613-1.099 1.21-2.111 1.793-3.037s1.158-1.799 1.727-2.62h0.779c0.082 0.408 0.157 0.821 0.226 1.237s0.135 0.853 0.201 1.31c0.066 0.457 0.129 0.942 0.189 1.454s0.123 1.063 0.189 1.657h-0.804c-0.027-0.245-0.052-0.491-0.074-0.739s-0.047-0.486-0.074-0.714l-2.478-0.001zM46.618 29.403c-0.044-0.44-0.094-0.879-0.152-1.314s-0.124-0.884-0.201-1.347c-0.191 0.277-0.429 0.636-0.714 1.073-0.285 0.439-0.607 0.967-0.968 1.588h2.035z"></path>
<path fill="#889099" style="fill: var(--color3, #889099)" d="M50.552 31.615c-0.355 0-0.669-0.052-0.939-0.155s-0.496-0.25-0.677-0.441c-0.181-0.19-0.316-0.42-0.406-0.69s-0.135-0.573-0.135-0.91c0-0.49 0.078-0.958 0.234-1.404s0.377-0.84 0.665-1.183c0.287-0.343 0.633-0.616 1.038-0.821s0.855-0.306 1.354-0.306c0.427 0 0.767 0.043 1.021 0.131s0.436 0.169 0.546 0.245l-0.328 0.653c-0.127-0.082-0.297-0.159-0.513-0.233s-0.472-0.11-0.767-0.11c-0.377 0-0.717 0.088-1.017 0.266s-0.555 0.405-0.763 0.686-0.367 0.596-0.476 0.947c-0.109 0.351-0.164 0.698-0.164 1.041 0 1.061 0.462 1.592 1.387 1.592 0.197 0 0.373-0.014 0.529-0.041s0.294-0.059 0.414-0.094c0.12-0.035 0.227-0.074 0.32-0.118s0.175-0.082 0.246-0.114l0.099 0.686c-0.066 0.038-0.152 0.079-0.259 0.122s-0.231 0.084-0.373 0.123c-0.142 0.038-0.301 0.069-0.476 0.094s-0.361 0.036-0.558 0.036v0z"></path>
<path fill="#889099" style="fill: var(--color3, #889099)" d="M55.162 31.615c-0.356 0-0.669-0.052-0.939-0.155s-0.496-0.25-0.677-0.441c-0.181-0.19-0.316-0.42-0.406-0.69s-0.135-0.573-0.135-0.91c0-0.49 0.078-0.958 0.234-1.404s0.377-0.84 0.665-1.183c0.287-0.343 0.633-0.616 1.038-0.821s0.855-0.306 1.354-0.306c0.427 0 0.767 0.043 1.022 0.131s0.436 0.169 0.546 0.245l-0.328 0.653c-0.126-0.082-0.297-0.159-0.513-0.233s-0.472-0.11-0.767-0.11c-0.377 0-0.717 0.088-1.017 0.266s-0.555 0.405-0.763 0.686-0.367 0.596-0.476 0.947c-0.109 0.351-0.164 0.698-0.164 1.041 0 1.061 0.462 1.592 1.387 1.592 0.197 0 0.373-0.014 0.529-0.041s0.294-0.059 0.414-0.094c0.12-0.035 0.227-0.074 0.32-0.118s0.175-0.082 0.246-0.114l0.098 0.686c-0.066 0.038-0.152 0.079-0.258 0.122s-0.231 0.084-0.373 0.123c-0.142 0.038-0.301 0.069-0.476 0.094s-0.361 0.036-0.558 0.036v0z"></path>
<path fill="#889099" style="fill: var(--color3, #889099)" d="M57.365 31.492l1.362-5.657h3.356l-0.156 0.661h-2.568l-0.41 1.706h2.281l-0.156 0.645h-2.273l-0.484 1.984h2.757l-0.156 0.661h-3.553z"></path>
<path fill="#889099" style="fill: var(--color3, #889099)" d="M64.458 25.778c0.662 0 1.161 0.125 1.497 0.376s0.505 0.615 0.505 1.094c0 0.37-0.070 0.69-0.209 0.959s-0.338 0.491-0.595 0.666c-0.257 0.174-0.566 0.303-0.927 0.387s-0.763 0.127-1.206 0.127h-0.566l-0.509 2.106h-0.796l1.346-5.584c0.23-0.054 0.473-0.090 0.73-0.106s0.501-0.025 0.73-0.025zM64.36 26.448c-0.388 0-0.624 0.011-0.706 0.033l-0.541 2.245h0.517c0.23 0 0.465-0.020 0.706-0.061s0.457-0.113 0.648-0.216c0.191-0.103 0.349-0.246 0.472-0.429s0.185-0.417 0.185-0.705c0-0.31-0.115-0.532-0.345-0.666s-0.542-0.2-0.935-0.2v0z"></path>
<path fill="#889099" style="fill: var(--color3, #889099)" d="M71.314 25.835l-0.156 0.661h-1.715l-1.206 4.996h-0.796l1.206-4.996h-1.715l0.156-0.661h4.226z"></path>
<path fill="#889099" style="fill: var(--color3, #889099)" d="M70.576 31.492l1.362-5.657h3.356l-0.156 0.661h-2.568l-0.41 1.706h2.281l-0.156 0.645h-2.273l-0.484 1.984h2.757l-0.156 0.661h-3.553z"></path>
<path fill="#889099" style="fill: var(--color3, #889099)" d="M77.657 25.778c0.842 0 1.471 0.197 1.887 0.592s0.624 0.927 0.624 1.596c0 0.468-0.074 0.918-0.221 1.35-0.148 0.433-0.377 0.815-0.689 1.148-0.312 0.331-0.71 0.596-1.194 0.792s-1.063 0.294-1.735 0.294c-0.23 0-0.479-0.011-0.747-0.033s-0.503-0.060-0.706-0.114l1.321-5.494c0.23-0.054 0.473-0.090 0.73-0.106s0.5-0.025 0.73-0.025zM77.591 26.448c-0.41 0-0.656 0.011-0.738 0.033l-1.050 4.359c0.044 0.011 0.118 0.020 0.221 0.029s0.274 0.012 0.509 0.012c0.432 0 0.822-0.071 1.169-0.216s0.641-0.346 0.882-0.605c0.241-0.258 0.427-0.565 0.558-0.922s0.197-0.747 0.197-1.171c0-0.479-0.139-0.852-0.419-1.119-0.279-0.266-0.722-0.4-1.329-0.4v0z"></path>
<path fill="#889099" style="fill: var(--color3, #889099)" d="M86.297 31.492h-0.796l0.632-2.629h-2.634l-0.632 2.629h-0.796l1.362-5.657h0.796l-0.574 2.367h2.635l0.574-2.367h0.796l-1.363 5.657z"></path>
<path fill="#889099" style="fill: var(--color3, #889099)" d="M87.552 31.492l1.362-5.657h3.356l-0.157 0.661h-2.568l-0.41 1.706h2.281l-0.157 0.645h-2.273l-0.483 1.984h2.756l-0.157 0.661h-3.551z"></path>
<path fill="#889099" style="fill: var(--color3, #889099)" d="M94.645 25.778c0.607 0 1.089 0.123 1.444 0.367s0.533 0.604 0.533 1.077c0 0.479-0.14 0.881-0.422 1.205s-0.677 0.556-1.186 0.697c0.066 0.115 0.142 0.261 0.23 0.437s0.178 0.373 0.271 0.588c0.092 0.214 0.183 0.438 0.271 0.669 0.087 0.232 0.163 0.456 0.23 0.673h-0.812c-0.076-0.207-0.156-0.416-0.238-0.629s-0.165-0.416-0.25-0.612c-0.085-0.196-0.17-0.38-0.255-0.551-0.084-0.171-0.163-0.323-0.234-0.453-0.071 0.005-0.142 0.010-0.213 0.012s-0.142 0.004-0.213 0.004h-0.632l-0.533 2.229h-0.796l1.346-5.584c0.23-0.054 0.473-0.090 0.73-0.106 0.256-0.016 0.5-0.024 0.73-0.024zM94.547 26.448c-0.388 0-0.624 0.011-0.706 0.033l-0.517 2.139h0.485c0.224 0 0.454-0.016 0.689-0.049s0.45-0.097 0.643-0.192c0.194-0.095 0.353-0.229 0.476-0.4s0.185-0.399 0.185-0.682c0-0.305-0.116-0.522-0.349-0.653s-0.535-0.197-0.907-0.197z"></path>
<path fill="#889099" style="fill: var(--color3, #889099)" d="M96.683 31.492l1.362-5.657h3.356l-0.157 0.661h-2.568l-0.41 1.706h2.281l-0.157 0.645h-2.273l-0.483 1.984h2.756l-0.157 0.661h-3.551z"></path>
<path fill="#889099" style="fill: var(--color3, #889099)" d="M10.97 21.789c6.040 0 10.936-4.871 10.936-10.88s-4.896-10.88-10.936-10.88c-6.040 0-10.936 4.871-10.936 10.88s4.896 10.88 10.936 10.88zM13.386 6.611c1.515 0.52 2.624 1.298 2.406 2.746-0.158 1.061-0.749 1.573-1.534 1.753 1.077 0.558 1.625 1.413 1.103 2.897-0.647 1.842-2.187 1.997-4.234 1.612l-0.497 1.98-1.2-0.298 0.49-1.954c-0.311-0.077-0.629-0.159-0.957-0.247l-0.492 1.963-1.199-0.298 0.496-1.984c-0.106-0.027-0.212-0.055-0.319-0.083-0.177-0.046-0.355-0.092-0.536-0.137l-1.562-0.387 0.596-1.367c0 0 0.885 0.233 0.872 0.216 0.34 0.084 0.491-0.137 0.55-0.283l0.785-3.132 0.018 0.004c0.038 0.009 0.075 0.018 0.11 0.028-0.049-0.020-0.092-0.032-0.125-0.040l0.56-2.235c0.015-0.254-0.073-0.573-0.559-0.695 0.018-0.013-0.872-0.216-0.872-0.216l0.319-1.276 1.655 0.411-0.001 0.006c0.249 0.062 0.505 0.12 0.767 0.18l0.492-1.962 1.199 0.298-0.482 1.923c0.323 0.073 0.647 0.147 0.962 0.225l0.479-1.911 1.2 0.298-0.492 1.963zM13.050 13.184c-0.341 1.361-2.482 0.797-3.461 0.54h-0c-0.088-0.023-0.166-0.044-0.233-0.060l0.659-2.629c0.082 0.020 0.182 0.043 0.295 0.068h0c1.013 0.226 3.089 0.69 2.74 2.081zM10.515 9.884c0.817 0.216 2.596 0.688 2.906-0.548 0.316-1.264-1.412-1.645-2.258-1.832-0.096-0.021-0.18-0.040-0.249-0.057l-0.598 2.385c0.057 0.014 0.124 0.032 0.199 0.052z"></path>
</symbol>
<symbol id="icon-visa_logo_icon_206647" viewBox="0 0 32 32">
<path d="M29.629 21.024l-0.3-1.5h-3.352l-0.533 1.489-2.687 0.005c15.12-39.703 16.415-42.745 17.712-45.786l-13.867 36.562c0.219-0.521 0.607-0.787 1.179-0.784 0.437 0.004 1.151 0.004 2.141 0.001l2.077 10.008-2.371 0.004zM26.732 17.469h2.16l-0.807-3.76-1.353 3.76zM9.413 11.009l2.701 0.003-4.176 10.013-2.735-0.003c1.302 6.2 0.601 3.537-0.092 0.872l-1.945-8.813c-0.133-0.528-0.397-0.897-0.905-1.072-0.452-0.156-1.205-0.396-2.261-0.723v-0.273h4.316c0.747 0 1.183 0.361 1.323 1.103 0.141 0.743 0.496 2.633 1.067 5.672l2.708-6.779zM15.827 11.012l-2.136 10.011-2.571-0.003 2.133-10.011 2.573 0.003zM21.040 10.827c0.769 0 1.739 0.24 2.296 0.46l-0.451 2.076c-0.504-0.203-1.333-0.476-2.031-0.467-1.013 0.017-1.64 0.443-1.64 0.851 0 0.664 1.088 0.999 2.208 1.724 1.279 0.827 1.447 1.569 1.431 2.376-0.017 1.675-1.431 3.327-4.412 3.327-1.36-0.020-1.851-0.135-2.96-0.528l0.469-2.167c1.129 0.473 1.608 0.624 2.573 0.624 0.884 0 1.643-0.357 1.649-0.98 0.005-0.443-0.267-0.663-1.259-1.209-0.992-0.548-2.384-1.307-2.365-2.829 0.023-1.949 1.869-3.257 4.492-3.257z"></path>
</symbol>
</defs>
</svg>
